<?xml version="1.0" encoding="UTF-8" standalone="no"?>
<!DOCTYPE svg PUBLIC "-//W3C//DTD SVG 1.1//EN" "http://www.w3.org/Graphics/SVG/1.1/DTD/svg11.dtd">
<svg width="100%" height="100%" viewBox="0 0 6 4" version="1.1" xmlns="http://www.w3.org/2000/svg" xmlns:xlink="http://www.w3.org/1999/xlink" xml:space="preserve" xmlns:serif="http://www.serif.com/" style="fill-rule:evenodd;clip-rule:evenodd;stroke-linejoin:round;stroke-miterlimit:2;">
    <g transform="matrix(0.494739,0,0,0.942343,0.00419497,0.000514459)">
        <path d="M11.992,0.795L11.992,3.192C11.992,3.626 11.321,3.978 10.494,3.978L1.506,3.978C0.679,3.978 0.008,3.626 0.008,3.192L0.008,0.795C0.008,0.361 0.679,0.009 1.506,0.009L10.494,0.009C11.321,0.009 11.992,0.361 11.992,0.795ZM6.003,1.306C5.696,0.742 4.863,0.419 3.715,0.419C2.09,0.419 0.982,1.018 0.982,1.968C0.982,2.448 1.233,2.847 1.718,3.144C2.203,3.441 2.817,3.56 3.691,3.56C4.895,3.56 5.776,3.204 6.1,2.546L5.332,2.444C5.122,2.966 4.467,3.216 3.658,3.216C2.486,3.216 1.774,2.779 1.774,1.968C1.774,1.209 2.478,0.763 3.699,0.763C4.491,0.763 4.984,0.975 5.243,1.4L6.003,1.306ZM9.358,1.31L8.719,1.31L8.719,3.509L9.431,3.509L9.431,2.355C9.431,1.875 9.73,1.642 10.215,1.642C10.417,1.642 10.595,1.671 10.757,1.722L10.999,1.378C10.773,1.302 10.531,1.259 10.28,1.259C9.803,1.259 9.585,1.429 9.358,1.642L9.358,1.31ZM7.652,0.47L6.941,0.47L6.941,3.509L7.652,3.509L7.652,0.47Z"/>
    </g>
</svg>
