<?xml version="1.0" encoding="UTF-8" standalone="no"?>
<!DOCTYPE svg PUBLIC "-//W3C//DTD SVG 1.1//EN" "http://www.w3.org/Graphics/SVG/1.1/DTD/svg11.dtd">
<svg width="100%" height="100%" viewBox="0 0 7 4" version="1.1" xmlns="http://www.w3.org/2000/svg" xmlns:xlink="http://www.w3.org/1999/xlink" xml:space="preserve" xmlns:serif="http://www.serif.com/" style="fill-rule:evenodd;clip-rule:evenodd;stroke-linejoin:round;stroke-miterlimit:2;">
    <g transform="matrix(0.562258,0,0,0.942343,0.0036344,0.000514459)">
        <path d="M11.992,0.795L11.992,3.192C11.992,3.626 11.401,3.978 10.674,3.978L1.326,3.978C0.599,3.978 0.008,3.626 0.008,3.192L0.008,0.795C0.008,0.361 0.599,0.009 1.326,0.009L10.674,0.009C11.401,0.009 11.992,0.361 11.992,0.795ZM8.634,1.31L8.072,1.31L8.072,3.509L8.698,3.509L8.698,2.355C8.698,1.875 8.961,1.642 9.388,1.642C9.566,1.642 9.722,1.671 9.865,1.722L10.078,1.378C9.879,1.302 9.665,1.259 9.445,1.259C9.025,1.259 8.833,1.429 8.634,1.642L8.634,1.31ZM5.283,1.306C5.013,0.742 4.28,0.419 3.27,0.419C1.84,0.419 0.865,1.018 0.865,1.968C0.865,2.448 1.086,2.847 1.513,3.144C1.939,3.441 2.48,3.56 3.248,3.56C4.308,3.56 5.084,3.204 5.368,2.546L4.693,2.444C4.508,2.966 3.931,3.216 3.22,3.216C2.188,3.216 1.562,2.779 1.562,1.968C1.562,1.209 2.181,0.763 3.255,0.763C3.953,0.763 4.387,0.975 4.614,1.4L5.283,1.306ZM6.834,1.591L7.46,1.591L7.46,1.31L6.834,1.31L6.834,0.538L6.208,0.763L6.208,1.31L5.753,1.31L5.753,1.591L6.208,1.591L6.208,2.885C6.208,3.225 6.194,3.56 7.09,3.56C7.261,3.56 7.424,3.543 7.552,3.526L7.46,3.195C7.353,3.204 7.261,3.216 7.183,3.216C6.834,3.216 6.834,3.102 6.834,2.906L6.834,1.591ZM11.081,0.47L10.455,0.47L10.455,3.509L11.081,3.509L11.081,0.47Z"/>
    </g>
</svg>
