<?xml version="1.0" encoding="UTF-8" standalone="no"?>
<!DOCTYPE svg PUBLIC "-//W3C//DTD SVG 1.1//EN" "http://www.w3.org/Graphics/SVG/1.1/DTD/svg11.dtd">
<svg width="100%" height="100%" viewBox="0 0 25 17" version="1.1" xmlns="http://www.w3.org/2000/svg" xmlns:xlink="http://www.w3.org/1999/xlink" xml:space="preserve" xmlns:serif="http://www.serif.com/" style="fill-rule:evenodd;clip-rule:evenodd;stroke-linejoin:round;stroke-miterlimit:2;">
    <g transform="matrix(1.20457,0,0,1,-0.0400152,0)">
        <path d="M20.787,3.366L20.787,13.313C20.787,15.143 19.554,16.629 18.035,16.629L2.786,16.629C1.267,16.629 0.033,15.143 0.033,13.313L0.033,3.366C0.033,1.536 1.267,0.051 2.786,0.051L18.035,0.051C19.554,0.051 20.787,1.536 20.787,3.366ZM19.957,3.366C19.957,2.088 19.096,1.051 18.035,1.051L2.786,1.051C1.725,1.051 0.863,2.088 0.863,3.366L0.863,13.313C0.863,14.591 1.725,15.629 2.786,15.629L18.035,15.629C19.096,15.629 19.957,14.591 19.957,13.313L19.957,3.366Z"/>
    </g>
    <g transform="matrix(1,0,0,1,0.431853,0.10124)">
        <g transform="matrix(16.6667,0,0,16.6667,2.0074,13.8316)">
            <path d="M0.175,-0L0.175,-0.326L0.511,-0.326L0.511,-0.41L0.175,-0.41L0.175,-0.632L0.563,-0.632L0.563,-0.716L0.08,-0.716L0.08,-0L0.175,-0Z" style="fill-rule:nonzero;"/>
        </g>
        <g transform="matrix(16.6667,0,0,16.6667,12.1907,13.8316)">
            <path d="M0.147,-0.518L0.068,-0.518L0.068,-0L0.156,-0L0.156,-0.283C0.156,-0.325 0.159,-0.361 0.174,-0.389C0.195,-0.429 0.242,-0.454 0.293,-0.454C0.332,-0.454 0.364,-0.438 0.382,-0.413C0.401,-0.386 0.402,-0.353 0.402,-0.315L0.402,-0L0.49,-0L0.49,-0.319C0.49,-0.37 0.49,-0.414 0.467,-0.454C0.44,-0.5 0.383,-0.53 0.312,-0.53C0.243,-0.53 0.185,-0.501 0.147,-0.445L0.147,-0.518Z" style="fill-rule:nonzero;"/>
        </g>
    </g>
</svg>
