<?xml version="1.0" encoding="UTF-8" standalone="no"?>
<!DOCTYPE svg PUBLIC "-//W3C//DTD SVG 1.1//EN" "http://www.w3.org/Graphics/SVG/1.1/DTD/svg11.dtd">
<svg width="100%" height="100%" viewBox="0 0 21 17" version="1.1" xmlns="http://www.w3.org/2000/svg" xmlns:xlink="http://www.w3.org/1999/xlink" xml:space="preserve" xmlns:serif="http://www.serif.com/" style="fill-rule:evenodd;clip-rule:evenodd;stroke-linejoin:round;stroke-miterlimit:2;">
    <path d="M20.787,3.366L20.787,13.313C20.787,15.143 19.302,16.629 17.472,16.629L3.349,16.629C1.519,16.629 0.033,15.143 0.033,13.313L0.033,3.366C0.033,1.536 1.519,0.051 3.349,0.051L17.472,0.051C19.302,0.051 20.787,1.536 20.787,3.366ZM19.787,3.366C19.787,2.088 18.75,1.051 17.472,1.051L3.349,1.051C2.071,1.051 1.033,2.088 1.033,3.366L1.033,13.313C1.033,14.591 2.071,15.629 3.349,15.629L17.472,15.629C18.75,15.629 19.787,14.591 19.787,13.313L19.787,3.366Z"/>
</svg>
