%TF.GenerationSoftware,KiCad,Pcbnew,10.0.6*%
%TF.CreationDate,2026-09-27T21:40:23+02:00*%
%TF.ProjectId,tonnere,746f6e6e-6572-4652-9e6b-696361645f70,rev?*%
%TF.SameCoordinates,Original*%
%TF.FileFunction,Soldermask,Bot*%
%TF.FilePolarity,Negative*%
%FSLAX46Y46*%
G04 Gerber Fmt 4.6, Leading zero omitted, Abs format (unit mm)*
G04 Created by KiCad (PCBNEW 10.0.6) date 2026-09-27 21:40:23*
%MOMM*%
%LPD*%
G01*
G04 APERTURE LIST*
G04 Aperture macros list*
%AMRoundRect*
0 Rectangle with rounded corners*
0 $1 Rounding radius*
0 $2 $3 $4 $5 $6 $7 $8 $9 X,Y pos of 4 corners*
0 Add a 4 corners polygon primitive as box body*
4,1,4,$2,$3,$4,$5,$6,$7,$8,$9,$2,$3,0*
0 Add four circle primitives for the rounded corners*
1,1,$1+$1,$2,$3*
1,1,$1+$1,$4,$5*
1,1,$1+$1,$6,$7*
1,1,$1+$1,$8,$9*
0 Add four rect primitives between the rounded corners*
20,1,$1+$1,$2,$3,$4,$5,0*
20,1,$1+$1,$4,$5,$6,$7,0*
20,1,$1+$1,$6,$7,$8,$9,0*
20,1,$1+$1,$8,$9,$2,$3,0*%
G04 Aperture macros list end*
%ADD10C,4.900000*%
%ADD11C,9.000000*%
%ADD12O,1.800000X1.800000*%
%ADD13O,2.101600X2.101600*%
%ADD14RoundRect,0.250000X0.600000X0.600000X-0.600000X0.600000X-0.600000X-0.600000X0.600000X-0.600000X0*%
%ADD15C,1.700000*%
%ADD16O,1.101600X2.101600*%
%ADD17O,0.650000X0.650000*%
%ADD18R,1.700000X1.700000*%
%ADD19RoundRect,0.419100X-0.317500X-4.762500X0.317500X-4.762500X0.317500X4.762500X-0.317500X4.762500X0*%
%ADD20C,3.000000*%
%ADD21C,1.600000*%
%ADD22C,1.711200*%
%ADD23C,4.000000*%
%ADD24C,1.524000*%
%ADD25RoundRect,0.102000X0.739000X-0.739000X0.739000X0.739000X-0.739000X0.739000X-0.739000X-0.739000X0*%
%ADD26C,1.682000*%
%ADD27C,2.304000*%
%ADD28R,1.300000X1.300000*%
%ADD29C,1.300000*%
%ADD30O,2.900000X1.900000*%
%ADD31O,1.900000X2.900000*%
%ADD32C,2.540000*%
%ADD33C,1.611200*%
%ADD34O,1.901600X1.901600*%
%ADD35O,5.101600X5.101600*%
%ADD36O,1.601600X2.801600*%
%ADD37O,1.601600X3.401600*%
%ADD38C,2.800000*%
%ADD39C,3.200000*%
%ADD40C,6.000000*%
G04 APERTURE END LIST*
D10*
%TO.C,H4*%
X221000000Y-37000000D03*
D11*
X221000000Y-37000000D03*
%TD*%
D12*
%TO.C,SW1*%
X17190000Y-20960000D03*
X17190000Y-23500000D03*
X17190000Y-26040000D03*
X17190000Y-15880000D03*
%TD*%
D13*
%TO.C,BT1*%
X89840000Y-29035000D03*
X79840000Y-29035000D03*
X84840000Y-32685000D03*
%TD*%
D14*
%TO.C,J22*%
X29350000Y-102240000D03*
D15*
X26810000Y-102240000D03*
X29350000Y-99700000D03*
X26810000Y-99700000D03*
X29350000Y-97160000D03*
X26810000Y-97160000D03*
X29350000Y-94620000D03*
X26810000Y-94620000D03*
X29350000Y-92080000D03*
X26810000Y-92080000D03*
%TD*%
D16*
%TO.C,USB2*%
X114800000Y-17900000D03*
X114800000Y-24000000D03*
X117660000Y-24000000D03*
X117660000Y-17900000D03*
D17*
X116604900Y-17950000D03*
X116604900Y-18850200D03*
X116604900Y-19750100D03*
X116604900Y-20650000D03*
X116604900Y-21550200D03*
X116604900Y-22900200D03*
X116604900Y-23800100D03*
X115855100Y-23800100D03*
X115855100Y-22900200D03*
X115855100Y-22000000D03*
X115855100Y-21100100D03*
X115855100Y-20200200D03*
X115855100Y-18850200D03*
X115855100Y-17950000D03*
%TD*%
D18*
%TO.C,J14*%
X125540000Y-60070000D03*
D15*
X123000000Y-60070000D03*
X120460000Y-60070000D03*
%TD*%
D19*
%TO.C,EDGE1*%
X198200000Y-14600000D03*
X195660000Y-14600000D03*
X193120000Y-14600000D03*
X190580000Y-14600000D03*
X188040000Y-14600000D03*
X185500000Y-14600000D03*
X182960000Y-14600000D03*
X180420000Y-14600000D03*
X177880000Y-14600000D03*
X175340000Y-14600000D03*
X172800000Y-14600000D03*
X170260000Y-14600000D03*
X167720000Y-14600000D03*
X165180000Y-14600000D03*
X162640000Y-14600000D03*
X160100000Y-14600000D03*
X157560000Y-14600000D03*
X155020000Y-14600000D03*
X152480000Y-14600000D03*
X149940000Y-14600000D03*
X147400000Y-14600000D03*
X144860000Y-14600000D03*
X142320000Y-14600000D03*
X139780000Y-14600000D03*
X137240000Y-14600000D03*
%TD*%
D20*
%TO.C,TP1*%
X47760000Y-38330000D03*
%TD*%
D21*
%TO.C,Card2*%
X262310000Y-146300100D03*
X262310000Y-122099900D03*
%TD*%
D22*
%TO.C,J16*%
X257220000Y-81975000D03*
X257220000Y-79205000D03*
X257220000Y-76435000D03*
X257220000Y-73665000D03*
X257220000Y-70895000D03*
X260060000Y-80590000D03*
X260060000Y-77820000D03*
D23*
X251840000Y-88930000D03*
X259740000Y-88930000D03*
D22*
X260060000Y-75050000D03*
D23*
X251850000Y-63930000D03*
X259750000Y-63930000D03*
D22*
X260060000Y-72280000D03*
X250420000Y-81970000D03*
X250420000Y-79200000D03*
X250420000Y-76430000D03*
X250420000Y-73660000D03*
X250420000Y-70890000D03*
X253260000Y-80585000D03*
X253260000Y-77815000D03*
X253260000Y-75045000D03*
X253260000Y-72275000D03*
%TD*%
D18*
%TO.C,J8*%
X145980000Y-36542500D03*
D15*
X145980000Y-34002500D03*
X143440000Y-36542500D03*
X143440000Y-34002500D03*
X140900000Y-36542500D03*
X140900000Y-34002500D03*
X138360000Y-36542500D03*
X138360000Y-34002500D03*
%TD*%
D24*
%TO.C,U48*%
X61220000Y-21220000D03*
X58680000Y-21220000D03*
X56140000Y-21220000D03*
X61220000Y-18700000D03*
X56140000Y-18700000D03*
%TD*%
D18*
%TO.C,J10*%
X119360000Y-43580000D03*
D15*
X116820000Y-43580000D03*
X114280000Y-43580000D03*
X111740000Y-43580000D03*
X109200000Y-43580000D03*
%TD*%
D20*
%TO.C,TP3*%
X34100000Y-46800000D03*
%TD*%
D18*
%TO.C,J19*%
X149840000Y-96000000D03*
D15*
X147300000Y-96000000D03*
X144760000Y-96000000D03*
X142220000Y-96000000D03*
X139680000Y-96000000D03*
%TD*%
D10*
%TO.C,H3*%
X111000000Y-37000000D03*
D11*
X111000000Y-37000000D03*
%TD*%
D25*
%TO.C,J25*%
X255115000Y-105937500D03*
D26*
X253115000Y-105937500D03*
X251115000Y-105937500D03*
X249115000Y-105937500D03*
D27*
X255845000Y-103217500D03*
X255845000Y-108657500D03*
X248845000Y-108657500D03*
X248845000Y-103217500D03*
%TD*%
D18*
%TO.C,JP1*%
X121380000Y-50960000D03*
D15*
X118840000Y-50960000D03*
X116300000Y-50960000D03*
%TD*%
D18*
%TO.C,J18*%
X106480000Y-86930000D03*
D15*
X103940000Y-86930000D03*
X101400000Y-86930000D03*
X98860000Y-86930000D03*
X96320000Y-86930000D03*
X93780000Y-86930000D03*
X91240000Y-86930000D03*
%TD*%
D10*
%TO.C,H5*%
X61000000Y-57000000D03*
D11*
X61000000Y-57000000D03*
%TD*%
D18*
%TO.C,J15*%
X64980000Y-66140000D03*
D15*
X62440000Y-66140000D03*
X64980000Y-68680000D03*
X62440000Y-68680000D03*
X64980000Y-71220000D03*
X62440000Y-71220000D03*
%TD*%
D25*
%TO.C,J26*%
X255125000Y-114937500D03*
D26*
X253125000Y-114937500D03*
X251125000Y-114937500D03*
X249125000Y-114937500D03*
D27*
X255855000Y-112217500D03*
X255855000Y-117657500D03*
X248855000Y-117657500D03*
X248855000Y-112217500D03*
%TD*%
D18*
%TO.C,J27*%
X18930000Y-115890000D03*
D15*
X21470000Y-115890000D03*
X18930000Y-118430000D03*
X21470000Y-118430000D03*
%TD*%
D10*
%TO.C,H10*%
X221000000Y-137000000D03*
D11*
X221000000Y-137000000D03*
%TD*%
D20*
%TO.C,TP2*%
X34100000Y-43040000D03*
%TD*%
D28*
%TO.C,J20*%
X233200000Y-96410000D03*
D29*
X233200000Y-98910000D03*
X233200000Y-100910000D03*
X233200000Y-103410000D03*
D30*
X233800000Y-93340000D03*
D31*
X237980000Y-99910000D03*
D30*
X233800000Y-106480000D03*
%TD*%
D18*
%TO.C,J7*%
X140875000Y-31567500D03*
%TD*%
D10*
%TO.C,H7*%
X111000000Y-122000000D03*
D11*
X111000000Y-122000000D03*
%TD*%
D10*
%TO.C,H9*%
X111000000Y-137000000D03*
D11*
X111000000Y-137000000D03*
%TD*%
D25*
%TO.C,J21*%
X255065000Y-96937500D03*
D26*
X253065000Y-96937500D03*
X251065000Y-96937500D03*
X249065000Y-96937500D03*
D27*
X255795000Y-94217500D03*
X255795000Y-99657500D03*
X248795000Y-99657500D03*
X248795000Y-94217500D03*
%TD*%
D32*
%TO.C,J3*%
X261645000Y-15684500D03*
X222275000Y-15684500D03*
D33*
X252628000Y-26479500D03*
X250850000Y-23400000D03*
X249072000Y-26479500D03*
X247294000Y-23400000D03*
X245516000Y-26479500D03*
X243738000Y-23400000D03*
X241960000Y-26479500D03*
X240182000Y-23400000D03*
X238404000Y-26479500D03*
X236626000Y-23400000D03*
X234848000Y-26479500D03*
X233070000Y-23400000D03*
X231292000Y-26479500D03*
%TD*%
D18*
%TO.C,J6*%
X197900000Y-22760000D03*
D15*
X197900000Y-25300000D03*
X195360000Y-22760000D03*
X195360000Y-25300000D03*
X192820000Y-22760000D03*
X192820000Y-25300000D03*
X190280000Y-22760000D03*
X190280000Y-25300000D03*
X187740000Y-22760000D03*
X187740000Y-25300000D03*
X185200000Y-22760000D03*
X185200000Y-25300000D03*
X182660000Y-22760000D03*
X182660000Y-25300000D03*
X180120000Y-22760000D03*
X180120000Y-25300000D03*
X177580000Y-22760000D03*
X177580000Y-25300000D03*
X175040000Y-22760000D03*
X175040000Y-25300000D03*
X172500000Y-22760000D03*
X172500000Y-25300000D03*
X169960000Y-22760000D03*
X169960000Y-25300000D03*
X167420000Y-22760000D03*
X167420000Y-25300000D03*
X164880000Y-22760000D03*
X164880000Y-25300000D03*
X162340000Y-22760000D03*
X162340000Y-25300000D03*
X159800000Y-22760000D03*
X159800000Y-25300000D03*
X157260000Y-22760000D03*
X157260000Y-25300000D03*
X154720000Y-22760000D03*
X154720000Y-25300000D03*
X152180000Y-22760000D03*
X152180000Y-25300000D03*
X149640000Y-22760000D03*
X149640000Y-25300000D03*
X147100000Y-22760000D03*
X147100000Y-25300000D03*
X144560000Y-22760000D03*
X144560000Y-25300000D03*
X142020000Y-22760000D03*
X142020000Y-25300000D03*
X139480000Y-22760000D03*
X139480000Y-25300000D03*
X136940000Y-22760000D03*
X136940000Y-25300000D03*
%TD*%
D20*
%TO.C,TP4*%
X42720000Y-47380000D03*
%TD*%
D34*
%TO.C,J4*%
X76740000Y-17690000D03*
X79030100Y-17690000D03*
X81320100Y-17690000D03*
X83610200Y-17690000D03*
X85900000Y-17690000D03*
X75595200Y-15710000D03*
X77885000Y-15710000D03*
X80175100Y-15710000D03*
X82465200Y-15710000D03*
X84755000Y-15710000D03*
X76740000Y-13729800D03*
X79030100Y-13729800D03*
X81320100Y-13729800D03*
X83610200Y-13729800D03*
X85900000Y-13729800D03*
D35*
X93820000Y-15710000D03*
X68820000Y-15710000D03*
%TD*%
D18*
%TO.C,J17*%
X30350000Y-77790000D03*
D15*
X27810000Y-77790000D03*
X25270000Y-77790000D03*
%TD*%
D16*
%TO.C,USB1*%
X26160000Y-17740000D03*
X26160000Y-23840000D03*
X29020000Y-23840000D03*
X29020000Y-17740000D03*
D17*
X27964900Y-17790000D03*
X27964900Y-18690200D03*
X27964900Y-19590100D03*
X27964900Y-20490000D03*
X27964900Y-21390200D03*
X27964900Y-22740200D03*
X27964900Y-23640100D03*
X27215100Y-23640100D03*
X27215100Y-22740200D03*
X27215100Y-21840000D03*
X27215100Y-20940100D03*
X27215100Y-20040200D03*
X27215100Y-18690200D03*
X27215100Y-17790000D03*
%TD*%
D10*
%TO.C,H1*%
X31000000Y-37000000D03*
D11*
X31000000Y-37000000D03*
%TD*%
D18*
%TO.C,J9*%
X73020000Y-40090000D03*
D15*
X75560000Y-40090000D03*
X78100000Y-40090000D03*
X80640000Y-40090000D03*
X83180000Y-40090000D03*
X85720000Y-40090000D03*
X88260000Y-40090000D03*
%TD*%
D18*
%TO.C,J24*%
X216570000Y-104610000D03*
D15*
X216570000Y-107150000D03*
X216570000Y-109690000D03*
X216570000Y-112230000D03*
X216570000Y-114770000D03*
%TD*%
D18*
%TO.C,J12*%
X37700000Y-49920000D03*
D15*
X37700000Y-47380000D03*
X37700000Y-44840000D03*
X37700000Y-42300000D03*
X37700000Y-39760000D03*
%TD*%
D14*
%TO.C,J23*%
X165660000Y-103910000D03*
D15*
X163120000Y-103910000D03*
X165660000Y-101370000D03*
X163120000Y-101370000D03*
X165660000Y-98830000D03*
X163120000Y-98830000D03*
X165660000Y-96290000D03*
X163120000Y-96290000D03*
X165660000Y-93750000D03*
X163120000Y-93750000D03*
%TD*%
D36*
%TO.C,J5*%
X35809800Y-14420000D03*
X50310200Y-14420000D03*
D37*
X35809800Y-20420500D03*
X50310200Y-20420500D03*
%TD*%
D22*
%TO.C,J11*%
X257220000Y-49795000D03*
X257220000Y-47025000D03*
X257220000Y-44255000D03*
X257220000Y-41485000D03*
X257220000Y-38715000D03*
X260060000Y-48410000D03*
X260060000Y-45640000D03*
D23*
X251840000Y-56750000D03*
X259740000Y-56750000D03*
D22*
X260060000Y-42870000D03*
D23*
X251850000Y-31750000D03*
X259750000Y-31750000D03*
D22*
X260060000Y-40100000D03*
X250420000Y-49790000D03*
X250420000Y-47020000D03*
X250420000Y-44250000D03*
X250420000Y-41480000D03*
X250420000Y-38710000D03*
X253260000Y-48405000D03*
X253260000Y-45635000D03*
X253260000Y-42865000D03*
X253260000Y-40095000D03*
%TD*%
D20*
%TO.C,TP5*%
X34010000Y-50510000D03*
%TD*%
D10*
%TO.C,H2*%
X61000000Y-37000000D03*
D11*
X61000000Y-37000000D03*
%TD*%
D38*
%TO.C,J28*%
X104710000Y-15420000D03*
D21*
X104710000Y-19220000D03*
X99710000Y-19220000D03*
X102210000Y-19220000D03*
X107210000Y-19220000D03*
X109710000Y-19220000D03*
D39*
X110750000Y-15420000D03*
X110750000Y-26720000D03*
X98670000Y-26720000D03*
X98670000Y-15420000D03*
D21*
X100960000Y-24220000D03*
X103460000Y-24220000D03*
X105960000Y-24220000D03*
X108460000Y-24220000D03*
%TD*%
D10*
%TO.C,H6*%
X126000000Y-67000000D03*
D11*
X126000000Y-67000000D03*
%TD*%
D10*
%TO.C,H8*%
X31000000Y-137000000D03*
D11*
X31000000Y-137000000D03*
%TD*%
D33*
%TO.C,J13*%
X186010000Y-53690000D03*
X183470000Y-53690000D03*
X180930000Y-53690000D03*
X178390000Y-53690000D03*
X175850000Y-53690000D03*
X173310000Y-53690000D03*
X170770000Y-53690000D03*
X168230000Y-53690000D03*
X165690000Y-53690000D03*
X163150000Y-53690000D03*
X160610000Y-53690000D03*
X158070000Y-53690000D03*
X155530000Y-53690000D03*
X152990000Y-53690000D03*
X150450000Y-53690000D03*
X186010000Y-58770000D03*
D40*
X138230000Y-54325000D03*
D33*
X183470000Y-58770000D03*
D40*
X198230000Y-54960000D03*
D33*
X180930000Y-58770000D03*
X178390000Y-58770000D03*
X175850000Y-58770000D03*
X173310000Y-58770000D03*
X170770000Y-58770000D03*
X168230000Y-58770000D03*
X165690000Y-58770000D03*
X163150000Y-58770000D03*
X160610000Y-58770000D03*
X158070000Y-58770000D03*
X155530000Y-58770000D03*
X152990000Y-58770000D03*
X150450000Y-58770000D03*
%TD*%
M02*
