M48
; DRILL file KiCad 10.0.6 date 2026-09-27T21:40:23
; FORMAT={-:-/ absolute / inch / decimal}
; #@! TF.CreationDate,2026-09-27T21:40:23+02:00
; #@! TF.GenerationSoftware,Kicad,Pcbnew,10.0.6
; #@! TF.FileFunction,Plated,1,6,PTH
FMAT,2
INCH
; #@! TA.AperFunction,Plated,PTH,ViaDrill
T1C0.0118
; #@! TA.AperFunction,Plated,PTH,ComponentDrill
T2C0.0138
; #@! TA.AperFunction,Plated,PTH,ViaDrill
T3C0.0197
; #@! TA.AperFunction,Plated,PTH,ComponentDrill
T4C0.0236
; #@! TA.AperFunction,Plated,PTH,ComponentDrill
T5C0.0354
; #@! TA.AperFunction,Plated,PTH,ComponentDrill
T6C0.0360
; #@! TA.AperFunction,Plated,PTH,ComponentDrill
T7C0.0382
; #@! TA.AperFunction,Plated,PTH,ComponentDrill
T8C0.0394
; #@! TA.AperFunction,Plated,PTH,ComponentDrill
T9C0.0394
; #@! TA.AperFunction,Plated,PTH,ComponentDrill
T10C0.0433
; #@! TA.AperFunction,Plated,PTH,ComponentDrill
T11C0.0472
; #@! TA.AperFunction,Plated,PTH,ComponentDrill
T12C0.0472
; #@! TA.AperFunction,Plated,PTH,ComponentDrill
T13C0.0512
; #@! TA.AperFunction,Plated,PTH,ComponentDrill
T14C0.0551
; #@! TA.AperFunction,Plated,PTH,ComponentDrill
T15C0.0787
; #@! TA.AperFunction,Plated,PTH,ComponentDrill
T16C0.0906
; #@! TA.AperFunction,Plated,PTH,ComponentDrill
T17C0.0945
; #@! TA.AperFunction,Plated,PTH,ComponentDrill
T18C0.1102
; #@! TA.AperFunction,Plated,PTH,ComponentDrill
T19C0.1260
; #@! TA.AperFunction,Plated,PTH,ComponentDrill
T20C0.1280
; #@! TA.AperFunction,Plated,PTH,ComponentDrill
T21C0.1772
%
G90
G05
T1
X0.5236Y-1.7205
X0.5354Y-1.4449
X0.6339Y-1.4449
X0.6378Y-1.6299
X0.6457Y-1.7992
X0.6772Y-1.4606
X0.689Y-2.163
X0.7016Y-1.872
X0.7083Y-2.0161
X0.7118Y-2.9307
X0.7323Y-1.4449
X0.7441Y-1.0827
X0.7594Y-3.4291
X0.7598Y-3.0465
X0.7622Y-3.2846
X0.789Y-1.6004
X0.7917Y-2.9122
X0.8224Y-1.7047
X0.8366Y-1.9992
X0.8559Y-3.4728
X0.8728Y-2.3941
X0.8732Y-2.4228
X0.8732Y-2.4496
X0.8732Y-2.4811
X0.8925Y-2.663
X0.9091Y-3.028
X0.9193Y-1.8898
X0.9398Y-2.0181
X0.9598Y-2.2484
X0.9602Y-1.452
X0.9642Y-1.6307
X0.9685Y-0.9685
X0.9705Y-1.7961
X0.9783Y-2.1685
X0.9874Y-2.0906
X1.0024Y-2.3205
X1.0669Y-1.2602
X1.0795Y-1.8913
X1.1449Y-1.2591
X1.1516Y-3.1587
X1.1843Y-2.1008
X1.1913Y-2.7823
X1.2008Y-0.9646
X1.2037Y-2.2896
X1.2165Y-3.237
X1.2209Y-1.9516
X1.2409Y-2.8098
X1.2575Y-2.6929
X1.2815Y-2.7992
X1.3031Y-4.8315
X1.3083Y-2.2803
X1.3118Y-2.9547
X1.3185Y-1.0307
X1.3201Y-3.335
X1.3217Y-2.9972
X1.322Y-2.9071
X1.3567Y-2.8803
X1.3976Y-2.6142
X1.4012Y-2.8324
X1.4016Y-3.6528
X1.4026Y-3.7234
X1.4026Y-3.9508
X1.4031Y-0.9732
X1.4055Y-1.0303
X1.4083Y-1.0039
X1.4917Y-2.8815
X1.4965Y-3.0291
X1.4988Y-3.0559
X1.5Y-4.8976
X1.5272Y-1.0433
X1.5378Y-0.9039
X1.5378Y-3.8449
X1.5551Y-1.685
X1.5563Y-1.0441
X1.5673Y-3.6268
X1.5744Y-3.4811
X1.576Y-4.2004
X1.5787Y-4.0579
X1.5976Y-0.9043
X1.598Y-2.0453
X1.5984Y-1.7441
X1.6043Y-3.2602
X1.6248Y-1.0445
X1.6354Y-3.1437
X1.6386Y-5.0677
X1.6398Y-5.0079
X1.6508Y-2.8776
X1.6563Y-0.9043
X1.6563Y-1.0453
X1.6571Y-3.898
X1.6634Y-3.4488
X1.6634Y-3.4783
X1.6634Y-3.5067
X1.6724Y-2.7442
X1.6752Y-2.9075
X1.6929Y-3.5079
X1.6969Y-1.2187
X1.7142Y-0.9043
X1.7224Y-3.5079
X1.7224Y-3.5374
X1.7224Y-3.5965
X1.7236Y-4.0846
X1.7236Y-4.1142
X1.7236Y-4.1732
X1.7248Y-2.8976
X1.726Y-2.9224
X1.7264Y-2.9504
X1.7516Y-3.5401
X1.752Y-3.506
X1.752Y-3.5669
X1.752Y-3.5965
X1.752Y-4.0827
X1.7531Y-4.1437
X1.7531Y-4.1732
X1.7532Y-4.1164
X1.7598Y-0.9622
X1.7606Y-0.9909
X1.7654Y-1.0185
X1.7756Y-4.6528
X1.8051Y-2.9071
X1.811Y-3.5386
X1.8111Y-3.5658
X1.8111Y-4.1164
X1.8122Y-4.1426
X1.8264Y-3.8756
X1.8331Y-0.9055
X1.8358Y-4.4307
X1.8366Y-4.928
X1.8398Y-1.0209
X1.848Y-2.8909
X1.848Y-2.9433
X1.8551Y-5.0331
X1.8575Y-2.8255
X1.8665Y-3.2606
X1.8673Y-0.9583
X1.8736Y-4.9366
X1.8757Y-4.1209
X1.876Y-3.0106
X1.8768Y-1.0213
X1.887Y-3.3161
X1.8878Y-3.8756
X1.8972Y-4.6028
X1.8972Y-4.6638
X1.8981Y-4.1041
X1.9016Y-3.0028
X1.913Y-4.8441
X1.9157Y-4.4469
X1.9181Y-2.9878
X1.9193Y-4.0846
X1.9252Y-3.8917
X1.9307Y-1.2591
X1.9346Y-2.9693
X1.935Y-4.063
X1.9492Y-2.7604
X1.9528Y-4.0413
X1.961Y-1.0201
X1.9665Y-3.9508
X1.9673Y-3.3728
X1.9774Y-3.3179
X1.9854Y-0.9819
X1.9866Y-2.5283
X2.0016Y-1.0972
X2.0161Y-2.5272
X2.0191Y-3.7894
X2.0283Y-1.0819
X2.0441Y-3.3374
X2.0492Y-4.3531
X2.05Y-1.0012
X2.052Y-2.0976
X2.0575Y-3.1091
X2.0579Y-2.5303
X2.0598Y-3.5449
X2.0787Y-3.5642
X2.0801Y-3.7894
X2.0894Y-1.2198
X2.0933Y-2.7604
X2.0969Y-2.6177
X2.0976Y-1.085
X2.0976Y-3.3366
X2.102Y-3.1657
X2.1031Y-3.2819
X2.1181Y-3.4323
X2.1189Y-3.3866
X2.1201Y-3.4098
X2.126Y-3.0957
X2.138Y-3.4895
X2.1382Y-3.4634
X2.1386Y-2.1449
X2.1406Y-3.3701
X2.1484Y-3.0496
X2.1598Y-3.4098
X2.1598Y-3.4492
X2.1598Y-3.6063
X2.1598Y-3.8035
X2.1598Y-4.0398
X2.1598Y-4.1972
X2.1598Y-4.2366
X2.1756Y-4.3094
X2.1772Y-1.2198
X2.1776Y-3.2606
X2.1925Y-2.8263
X2.1988Y-3.6063
X2.1992Y-3.4098
X2.1992Y-3.4492
X2.1992Y-3.8035
X2.1992Y-4.0398
X2.2386Y-3.528
X2.2386Y-3.5673
X2.2386Y-3.7248
X2.2386Y-3.8035
X2.2386Y-3.8425
X2.2386Y-3.9217
X2.2386Y-3.9606
X2.2386Y-4.0791
X2.2386Y-4.1185
X2.2386Y-4.1579
X2.239Y-4.0004
X2.2775Y-3.765
X2.2776Y-3.8425
X2.2776Y-3.8819
X2.2776Y-4.0004
X2.2778Y-3.7249
X2.278Y-3.6849
X2.278Y-3.4886
X2.278Y-3.528
X2.278Y-3.5673
X2.278Y-3.6449
X2.278Y-3.8035
X2.278Y-4.0791
X2.2972Y-4.4787
X2.3169Y-3.8819
X2.3169Y-3.9206
X2.3169Y-3.9606
X2.3173Y-3.4886
X2.3173Y-3.528
X2.3173Y-3.5673
X2.3173Y-3.6067
X2.3173Y-3.6461
X2.3173Y-3.6854
X2.3173Y-3.7642
X2.3173Y-4.0398
X2.3173Y-4.0791
X2.3173Y-4.1185
X2.3173Y-4.1579
X2.3319Y-4.4787
X2.3563Y-3.8425
X2.3563Y-3.8819
X2.3563Y-3.9213
X2.3563Y-3.9606
X2.3563Y-4.0
X2.3567Y-3.4886
X2.3567Y-3.528
X2.3567Y-3.5673
X2.3567Y-3.6067
X2.3567Y-3.6461
X2.3567Y-3.6854
X2.3567Y-3.7248
X2.3567Y-3.7642
X2.3567Y-4.0791
X2.3657Y-4.4803
X2.3933Y-4.4815
X2.3936Y-3.3689
X2.3939Y-3.2228
X2.3957Y-3.8425
X2.3957Y-3.9213
X2.3957Y-3.9606
X2.3957Y-4.0
X2.3961Y-3.4104
X2.3961Y-3.4492
X2.3961Y-3.528
X2.3961Y-3.5673
X2.3961Y-3.6067
X2.3961Y-3.7248
X2.3961Y-3.8035
X2.3961Y-4.0398
X2.3961Y-4.1185
X2.3961Y-4.1579
X2.3961Y-4.1972
X2.3961Y-4.2366
X2.4039Y-4.5087
X2.4073Y-3.2459
X2.4173Y-4.4677
X2.4173Y-4.9256
X2.4177Y-3.2768
X2.4244Y-4.5323
X2.4354Y-3.6067
X2.4354Y-3.6461
X2.4354Y-3.6854
X2.4354Y-3.7248
X2.4354Y-3.7642
X2.4354Y-3.8035
X2.4354Y-3.8429
X2.4354Y-3.8823
X2.4354Y-3.961
X2.4354Y-4.0004
X2.4354Y-4.0398
X2.4354Y-4.0791
X2.4354Y-4.1185
X2.4367Y-3.4886
X2.4367Y-3.528
X2.441Y-3.0068
X2.447Y-4.6581
X2.4606Y-2.9535
X2.4611Y-2.9867
X2.4622Y-3.0402
X2.4727Y-4.4661
X2.4748Y-3.528
X2.4748Y-3.6854
X2.4748Y-3.7248
X2.4748Y-3.7642
X2.4748Y-3.8035
X2.4748Y-3.8429
X2.4748Y-3.8823
X2.4748Y-3.9217
X2.4748Y-4.0398
X2.4748Y-4.0791
X2.4748Y-4.1185
X2.4823Y-4.926
X2.4827Y-3.0563
X2.485Y-4.326
X2.4852Y-4.5081
X2.4898Y-4.5386
X2.498Y-3.0748
X2.5067Y-4.5602
X2.5142Y-3.4098
X2.5142Y-3.4886
X2.5142Y-3.528
X2.5142Y-3.6067
X2.5142Y-3.6854
X2.5142Y-3.7248
X2.5142Y-3.7642
X2.5142Y-3.8035
X2.5142Y-3.8429
X2.5142Y-3.8823
X2.5142Y-3.9217
X2.5142Y-3.961
X2.5142Y-4.0004
X2.5142Y-4.0398
X2.5142Y-4.0791
X2.5142Y-4.1185
X2.5154Y-3.0921
X2.5303Y-3.1106
X2.5366Y-3.1531
X2.5366Y-4.6091
X2.5465Y-4.3209
X2.5484Y-2.9886
X2.5528Y-3.2315
X2.5535Y-3.528
X2.5535Y-3.374
X2.5535Y-3.4098
X2.5535Y-3.4492
X2.5535Y-3.4886
X2.5535Y-3.5673
X2.5535Y-3.6067
X2.5535Y-3.6854
X2.5535Y-3.7248
X2.5535Y-3.7642
X2.5535Y-3.8035
X2.5535Y-3.8429
X2.5535Y-3.8823
X2.5535Y-3.9217
X2.5535Y-3.961
X2.5535Y-4.0398
X2.5535Y-4.0791
X2.5535Y-4.1185
X2.5543Y-3.128
X2.5551Y-3.2055
X2.5583Y-3.1799
X2.5693Y-3.2961
X2.5764Y-4.9244
X2.5768Y-4.4705
X2.5776Y-3.2602
X2.5824Y-3.317
X2.5839Y-4.524
X2.5921Y-3.4886
X2.5929Y-3.5673
X2.5929Y-3.7248
X2.5929Y-3.7642
X2.5929Y-3.8035
X2.5929Y-3.8429
X2.5929Y-3.8823
X2.5929Y-3.9217
X2.5929Y-3.961
X2.5929Y-4.0004
X2.5929Y-4.0398
X2.5929Y-4.1185
X2.5929Y-4.1579
X2.5929Y-4.1972
X2.5929Y-4.2366
X2.5946Y-3.6067
X2.5955Y-3.2907
X2.5976Y-4.2917
X2.6024Y-4.5366
X2.6126Y-4.3122
X2.6264Y-4.5531
X2.6312Y-4.326
X2.6323Y-3.4886
X2.6323Y-3.528
X2.6323Y-3.6067
X2.6323Y-3.7248
X2.6323Y-3.7642
X2.6323Y-3.8035
X2.6323Y-3.8429
X2.6323Y-3.8823
X2.6323Y-3.9217
X2.6323Y-3.961
X2.6323Y-4.0004
X2.6323Y-4.0398
X2.6323Y-4.0791
X2.6323Y-4.1185
X2.6323Y-4.1579
X2.6323Y-4.1972
X2.6323Y-4.2366
X2.6406Y-1.4067
X2.6626Y-3.1815
X2.6705Y-4.4693
X2.6705Y-4.9201
X2.6717Y-3.7248
X2.6717Y-3.7642
X2.6717Y-3.8035
X2.6717Y-3.8429
X2.6717Y-3.8823
X2.6717Y-3.9217
X2.6717Y-3.961
X2.6717Y-4.0004
X2.6717Y-4.0398
X2.6717Y-4.1185
X2.6717Y-4.1579
X2.6717Y-4.2366
X2.6748Y-1.411
X2.6823Y-1.3827
X2.6966Y-3.2949
X2.6969Y-4.5008
X2.7083Y-3.3661
X2.711Y-3.4886
X2.711Y-3.528
X2.711Y-3.7248
X2.711Y-3.8035
X2.711Y-3.8429
X2.711Y-3.8823
X2.711Y-3.9217
X2.711Y-4.0004
X2.711Y-4.0398
X2.711Y-4.0791
X2.711Y-4.1185
X2.7154Y-4.3398
X2.7181Y-4.5106
X2.7409Y-4.5272
X2.748Y-3.372
X2.75Y-3.4492
X2.7504Y-3.4098
X2.7504Y-3.5283
X2.7504Y-3.6067
X2.7504Y-3.6854
X2.7504Y-3.7248
X2.7504Y-3.8429
X2.7504Y-4.0004
X2.7504Y-4.0398
X2.7504Y-4.0791
X2.7504Y-4.1185
X2.7504Y-4.1579
X2.765Y-4.9236
X2.7654Y-4.4776
X2.7752Y-1.3831
X2.7791Y-4.326
X2.7803Y-1.8
X2.7858Y-4.5071
X2.7898Y-3.4886
X2.7898Y-3.528
X2.7898Y-3.5673
X2.7898Y-3.6067
X2.7898Y-3.6461
X2.7898Y-3.6854
X2.7898Y-3.7248
X2.7898Y-3.7642
X2.7898Y-3.8429
X2.7898Y-3.8823
X2.7898Y-3.9217
X2.7898Y-3.961
X2.7898Y-4.0398
X2.7898Y-4.0791
X2.7898Y-4.1185
X2.7976Y-4.3417
X2.8067Y-4.5252
X2.8154Y-4.3598
X2.8291Y-3.4492
X2.8291Y-3.6067
X2.8291Y-3.6461
X2.8291Y-3.6854
X2.8291Y-3.7642
X2.8291Y-3.8823
X2.8291Y-3.9217
X2.8291Y-3.961
X2.8291Y-4.0398
X2.8291Y-4.0791
X2.8291Y-4.1185
X2.8291Y-4.1579
X2.8382Y-4.3764
X2.839Y-2.4004
X2.8449Y-2.2228
X2.8464Y-2.9027
X2.853Y-4.5628
X2.8571Y-2.689
X2.8685Y-3.4098
X2.8685Y-3.4886
X2.8685Y-3.528
X2.8685Y-3.5673
X2.8685Y-3.6067
X2.8685Y-3.6461
X2.8685Y-3.6854
X2.8685Y-3.7248
X2.8685Y-3.7642
X2.8685Y-3.8035
X2.8685Y-3.8429
X2.8685Y-3.8823
X2.8685Y-3.9217
X2.8685Y-3.961
X2.8685Y-4.0004
X2.8685Y-4.0791
X2.8736Y-2.9012
X2.8843Y-2.5516
X2.887Y-2.6539
X2.8917Y-1.965
X2.8972Y-4.4634
X2.8988Y-2.5992
X2.9079Y-3.4098
X2.9079Y-3.4886
X2.9079Y-3.528
X2.9079Y-3.5673
X2.9079Y-3.7248
X2.9079Y-3.8035
X2.9079Y-3.8429
X2.9079Y-3.9217
X2.9079Y-4.0004
X2.9079Y-4.0791
X2.9083Y-3.4492
X2.9154Y-2.1894
X2.9252Y-4.4579
X2.9433Y-4.6122
X2.9461Y-4.6705
X2.9472Y-3.4886
X2.9472Y-3.528
X2.9472Y-3.8035
X2.9472Y-3.8429
X2.9528Y-2.8957
X2.9646Y-4.5858
X2.975Y-3.3805
X2.9866Y-3.4098
X2.9866Y-3.4492
X2.9866Y-3.4886
X2.9866Y-3.528
X2.9866Y-3.8035
X2.9866Y-3.8429
X2.9866Y-4.1976
X2.9866Y-4.2366
X2.9933Y-4.5114
X3.0024Y-3.3854
X3.0161Y-2.1236
X3.0315Y-4.227
X3.0317Y-3.4722
X3.0331Y-1.9102
X3.0354Y-2.8154
X3.039Y-1.8484
X3.0659Y-4.1854
X3.0697Y-4.8094
X3.0705Y-4.75
X3.0787Y-2.8937
X3.0788Y-4.2595
X3.0878Y-2.8138
X3.1157Y-4.2685
X3.127Y-4.1854
X3.1315Y-2.0835
X3.1472Y-4.2843
X3.1496Y-1.8953
X3.1638Y-4.3854
X3.1697Y-4.1654
X3.1709Y-4.1917
X3.1811Y-4.3114
X3.1858Y-4.3496
X3.1874Y-2.4098
X3.1878Y-2.2181
X3.1917Y-4.4575
X3.2009Y-4.1954
X3.2047Y-1.8898
X3.2055Y-2.0334
X3.2118Y-4.5283
X3.228Y-4.1953
X3.2283Y-2.1772
X3.2295Y-4.552
X3.2303Y-2.2075
X3.2358Y-2.1489
X3.2366Y-3.8909
X3.2453Y-4.4196
X3.2484Y-1.7205
X3.2587Y-3.9169
X3.2591Y-1.9882
X3.2681Y-4.5693
X3.2929Y-2.5035
X3.2988Y-3.8996
X3.3126Y-2.3516
X3.3157Y-2.1194
X3.3157Y-2.1646
X3.3161Y-3.7728
X3.3165Y-3.9484
X3.3173Y-2.0744
X3.3248Y-4.5693
X3.3311Y-2.248
X3.3315Y-4.6193
X3.3331Y-1.8815
X3.346Y-4.5812
X3.3492Y-2.3307
X3.3516Y-2.2606
X3.3516Y-4.6354
X3.3606Y-2.0756
X3.3607Y-2.3598
X3.361Y-1.7161
X3.3618Y-2.1194
X3.3618Y-2.1646
X3.3701Y-3.9709
X3.3713Y-2.2433
X3.4075Y-2.0724
X3.4075Y-2.1193
X3.4079Y-2.1642
X3.4114Y-1.9846
X3.428Y-1.8
X3.4402Y-2.2535
X3.4492Y-3.678
X3.4516Y-2.015
X3.452Y-1.863
X3.4531Y-2.9059
X3.461Y-1.8315
X3.4713Y-2.2331
X3.478Y-2.8933
X3.4823Y-2.4189
X3.4839Y-1.0579
X3.4845Y-2.856
X3.4921Y-2.1689
X3.4929Y-2.1291
X3.4933Y-2.0902
X3.4937Y-2.0504
X3.5008Y-1.8
X3.5114Y-2.0701
X3.5118Y-2.1492
X3.5126Y-2.1102
X3.5421Y-2.3035
X3.5492Y-2.3705
X3.5535Y-2.0307
X3.5579Y-2.1827
X3.5614Y-1.878
X3.5685Y-2.4693
X3.5744Y-2.8311
X3.5886Y-4.2535
X3.5913Y-2.7811
X3.5976Y-2.635
X3.6008Y-3.8476
X3.6024Y-2.1563
X3.615Y-2.4157
X3.6185Y-1.8402
X3.6213Y-2.0894
X3.6213Y-2.7717
X3.6232Y-2.6126
X3.6291Y-2.3354
X3.6488Y-3.5248
X3.6547Y-1.0492
X3.665Y-3.5472
X3.6795Y-3.5665
X3.6894Y-2.1169
X3.6965Y-3.5835
X3.7146Y-3.602
X3.7213Y-2.6287
X3.722Y-2.1516
X3.7236Y-2.3531
X3.7244Y-2.3201
X3.7272Y-1.8945
X3.7295Y-2.1283
X3.7512Y-2.3535
X3.752Y-2.7921
X3.7646Y-2.124
X3.7756Y-2.7988
X3.802Y-2.7992
X3.8069Y-2.8219
X3.8264Y-4.1024
X3.8268Y-4.2425
X3.8272Y-4.2728
X3.8283Y-3.6287
X3.8283Y-3.7693
X3.8283Y-3.8012
X3.8287Y-1.9508
X3.8378Y-2.8165
X3.8449Y-1.8323
X3.8571Y-2.7811
X3.876Y-2.8126
X3.8913Y-2.1862
X3.8949Y-2.7823
X3.9018Y-2.2624
X3.9028Y-1.985
X3.9122Y-2.8106
X3.922Y-2.2453
X3.9311Y-2.7839
X3.9335Y-2.2102
X3.9343Y-3.637
X3.9413Y-3.8012
X3.9433Y-4.1
X3.9461Y-4.2732
X3.9476Y-2.8587
X3.9488Y-2.1673
X3.9495Y-3.003
X3.952Y-2.8114
X3.9589Y-2.2325
X3.9681Y-2.0177
X3.9681Y-2.7827
X3.974Y-3.0075
X3.9929Y-2.8087
X3.9941Y-1.863
X4.0039Y-2.7819
X4.0161Y-2.1728
X4.028Y-2.0075
X4.0335Y-1.5091
X4.0382Y-1.6268
X4.0421Y-2.8091
X4.0429Y-2.7819
X4.0457Y-2.1685
X4.0476Y-1.7382
X4.0531Y-3.5184
X4.0689Y-3.9953
X4.0783Y-2.8083
X4.0795Y-2.1701
X4.0917Y-3.5453
X4.0931Y-1.3695
X4.0965Y-2.5299
X4.0976Y-2.7827
X4.1004Y-2.1539
X4.1173Y-1.9244
X4.1244Y-2.1378
X4.1354Y-3.5256
X4.1567Y-3.5705
X4.161Y-3.2602
X4.1614Y-2.811
X4.1634Y-3.289
X4.1655Y-3.5999
X4.1736Y-2.5307
X4.1791Y-2.4516
X4.1791Y-3.2402
X4.1823Y-2.7843
X4.1831Y-3.4937
X4.1898Y-1.8055
X4.1905Y-3.6249
X4.1925Y-1.9232
X4.1929Y-4.3681
X4.1957Y-3.5461
X4.1976Y-1.776
X4.2098Y-2.5157
X4.2165Y-4.3579
X4.2213Y-2.4535
X4.2217Y-2.4315
X4.239Y-4.3244
X4.2433Y-3.1819
X4.2472Y-3.1594
X4.2594Y-4.2787
X4.265Y-3.0685
X4.2799Y-3.526
X4.2876Y-3.057
X4.2925Y-4.2799
X4.2992Y-2.8591
X4.3039Y-3.4429
X4.3079Y-1.876
X4.3134Y-2.1322
X4.3157Y-4.2642
X4.3161Y-3.4232
X4.3181Y-2.8406
X4.3366Y-4.2445
X4.3591Y-4.2283
X4.3807Y-4.2114
X4.4035Y-4.2217
X4.4071Y-2.8594
X4.4281Y-1.9018
X4.4323Y-2.0217
X4.4343Y-2.9559
X4.4378Y-2.4953
X4.4465Y-2.8598
X4.4571Y-2.0122
X4.4571Y-2.761
X4.4602Y-2.8398
X4.4626Y-2.1614
X4.4642Y-2.9382
X4.4693Y-4.1992
X4.4866Y-1.939
X4.4933Y-4.2106
X4.5028Y-2.9563
X4.5228Y-4.1346
X4.5453Y-4.1406
X4.5551Y-1.1547
X4.5587Y-2.4315
X4.5614Y-2.4047
X4.5665Y-2.2272
X4.5677Y-3.015
X4.5685Y-4.411
X4.5717Y-1.1846
X4.5724Y-2.1909
X4.5724Y-2.824
X4.5736Y-2.3441
X4.5752Y-2.3008
X4.5933Y-2.7291
X4.5938Y-2.2878
X4.5953Y-2.3232
X4.6059Y-2.9421
X4.6087Y-2.3921
X4.6098Y-2.2441
X4.6106Y-4.124
X4.6185Y-4.1618
X4.6213Y-1.261
X4.6213Y-2.9598
X4.639Y-2.5512
X4.6437Y-2.8598
X4.6457Y-1.7988
X4.6461Y-2.6386
X4.6484Y-2.8933
X4.6531Y-4.0425
X4.6689Y-3.9394
X4.6701Y-4.0232
X4.6717Y-3.9728
X4.6783Y-0.922
X4.7094Y-1.0638
X4.7098Y-2.9575
X4.7201Y-1.6248
X4.7209Y-1.5437
X4.7484Y-0.9157
X4.7496Y-2.161
X4.7539Y-3.9717
X4.7543Y-3.9453
X4.7547Y-4.0035
X4.7547Y-4.0323
X4.7563Y-3.8937
X4.7563Y-3.9177
X4.7567Y-3.8717
X4.7622Y-3.85
X4.7693Y-1.1232
X4.778Y-1.0102
X4.7783Y-1.5469
X4.7789Y-2.8128
X4.7815Y-2.7587
X4.7815Y-2.8965
X4.7817Y-2.7297
X4.7823Y-2.9315
X4.7837Y-2.7844
X4.7846Y-2.9591
X4.785Y-2.8664
X4.7898Y-1.8988
X4.7961Y-1.1047
X4.8165Y-1.0402
X4.8205Y-4.2878
X4.8362Y-0.9972
X4.8413Y-1.0382
X4.865Y-1.185
X4.8803Y-1.5472
X4.8803Y-2.1906
X4.8811Y-2.1606
X4.8815Y-1.2602
X4.8823Y-2.0508
X4.9004Y-2.2283
X4.9024Y-2.0059
X4.9067Y-1.8846
X4.9189Y-2.1441
X4.9354Y-1.8921
X4.948Y-1.9803
X4.9488Y-2.1205
X4.9504Y-1.952
X4.9528Y-2.1421
X4.9661Y-2.1028
X4.9787Y-2.0819
X4.9965Y-1.7528
X5.0004Y-2.2161
X5.0008Y-2.0567
X5.0035Y-2.1512
X5.0374Y-1.1819
X5.0618Y-1.2198
X5.1752Y-4.2283
X5.1772Y-4.0354
X5.1776Y-4.3591
X5.2209Y-1.2807
X5.2283Y-1.4606
X5.2835Y-3.9618
X5.2972Y-1.502
X5.3126Y-4.6315
X5.3654Y-1.4579
X5.3701Y-0.822
X5.4606Y-4.1807
X5.4732Y-4.5303
X5.5055Y-4.6874
X5.5142Y-4.4051
X5.5626Y-4.687
X5.5803Y-1.1524
X5.5933Y-0.8134
X5.6004Y-1.0996
X5.6618Y-2.978
X5.6717Y-1.2198
X5.6807Y-4.5193
X5.6862Y-4.6803
X5.6906Y-2.9795
X5.6996Y-4.572
X5.7051Y-4.6244
X5.7343Y-1.1728
X5.7689Y-1.1622
X5.7728Y-1.5598
X5.7744Y-0.8146
X5.798Y-4.5382
X5.798Y-4.628
X5.7984Y-4.6823
X5.8067Y-1.0819
X5.8154Y-1.2551
X5.8181Y-1.0614
X5.8587Y-1.1047
X5.8711Y-1.0522
X5.8846Y-1.2555
X5.8925Y-4.5846
X5.8925Y-4.626
X5.898Y-4.6807
X5.9091Y-1.2242
X5.9469Y-0.9469
X5.9617Y-1.1062
X6.0035Y-4.5846
X6.0138Y-4.6799
X6.0252Y-4.5669
X6.026Y-4.7343
X6.0272Y-4.5331
X6.0303Y-1.0917
X6.0319Y-4.3843
X6.0327Y-1.2198
X6.0335Y-4.7795
X6.0358Y-4.4795
X6.0807Y-1.4933
X6.1079Y-1.2198
X6.1406Y-1.1499
X6.1465Y-1.1823
X6.1574Y-1.0322
X6.1685Y-4.2346
X6.1697Y-1.1894
X6.1728Y-1.2543
X6.2142Y-1.0992
X6.2232Y-2.7169
X6.2264Y-1.1846
X6.2429Y-2.1603
X6.2713Y-2.1535
X6.2764Y-0.813
X6.2835Y-1.1193
X6.3173Y-4.6697
X6.3827Y-4.4012
X6.4043Y-0.8142
X6.5338Y-1.1524
X6.565Y-1.1165
X6.5823Y-1.3118
X6.5988Y-1.0965
X6.6232Y-1.0854
X6.624Y-1.2705
X6.635Y-4.437
X6.6646Y-2.2122
X6.6709Y-2.0626
X6.6807Y-2.5008
X6.685Y-2.4394
X6.6878Y-1.4343
X6.6933Y-2.0559
X6.6945Y-1.1386
X6.7031Y-1.0942
X6.7358Y-2.3902
X6.7417Y-1.1602
X6.7622Y-2.0811
X6.7634Y-1.1205
X6.7807Y-4.4689
X6.7902Y-1.3331
X6.798Y-4.3512
X6.8307Y-4.3772
X6.8441Y-3.8807
X6.8504Y-4.0909
X6.8776Y-4.9705
X6.8787Y-0.8106
X6.8795Y-4.8988
X6.889Y-2.2177
X6.889Y-4.4366
X6.9142Y-4.4492
X6.974Y-2.2177
X6.9807Y-1.1669
X6.9894Y-1.1409
X6.9917Y-1.1102
X7.0575Y-1.0886
X7.1031Y-1.0531
X7.1063Y-2.2079
X7.1146Y-1.1323
X7.1248Y-1.1705
X7.1583Y-2.4299
X7.1642Y-1.052
X7.1811Y-2.1776
X7.187Y-2.4693
X7.2087Y-2.4953
X7.2295Y-2.5169
X7.2496Y-2.5409
X7.3307Y-3.8303
X7.3476Y-3.8114
X7.3638Y-3.7898
X7.3665Y-1.1165
X7.3713Y-1.9591
X7.3819Y-3.7713
X7.3878Y-4.1331
X7.4Y-3.7465
X7.4031Y-1.1201
X7.4201Y-3.7264
X7.4244Y-0.8091
X7.4409Y-3.7075
X7.4539Y-1.1004
X7.4622Y-3.6866
X7.4626Y-1.1863
X7.4807Y-3.6677
X7.4894Y-1.089
X7.4969Y-3.6508
X7.5035Y-1.1856
X7.5118Y-3.6343
X7.515Y-1.3701
X7.5268Y-3.6161
X7.5291Y-1.102
X7.5451Y-3.5989
X7.5547Y-1.1528
X7.5622Y-3.5811
X7.5807Y-3.5657
X7.5976Y-3.5469
X7.6146Y-3.528
X7.6165Y-1.165
X7.6343Y-3.5118
X7.6406Y-1.0752
X7.6512Y-1.1598
X7.6531Y-3.4949
X7.6717Y-3.4799
X7.6803Y-3.5953
X7.6886Y-3.463
X7.7075Y-3.4441
X7.7142Y-4.0713
X7.7252Y-3.4244
X7.7402Y-1.2198
X7.7441Y-3.4075
X7.7602Y-3.3878
X7.7768Y-3.3689
X7.778Y-1.0823
X7.787Y-4.0433
X7.7937Y-3.3508
X7.8035Y-0.8071
X7.8091Y-3.3299
X7.9339Y-3.9264
X7.9358Y-3.4413
X7.9358Y-3.6142
X7.9374Y-3.5827
X7.95Y-3.3114
X7.9728Y-3.3051
X7.9894Y-3.3232
X8.0067Y-3.3055
X8.0394Y-3.3378
X8.0567Y-3.4433
X8.0572Y-3.9252
X8.0575Y-3.6154
X8.0598Y-3.3114
X8.0598Y-4.1
X8.0724Y-4.8783
X8.074Y-4.7472
X8.074Y-4.8126
X8.0791Y-4.9929
X8.1114Y-5.0598
X8.1579Y-3.3307
X8.165Y-4.7873
X8.1669Y-4.8819
X8.1677Y-3.824
X8.1961Y-4.6618
X8.1996Y-5.1764
X8.2012Y-5.235
X8.2016Y-4.7213
X8.2205Y-4.7614
X8.2479Y-4.7493
X8.2579Y-5.4406
X8.2697Y-4.5134
X8.2697Y-4.5925
X8.2697Y-4.8476
X8.2697Y-4.9453
X8.2705Y-4.8972
X8.2736Y-4.7476
X8.2783Y-1.2198
X8.3161Y-4.1614
X8.3169Y-3.1295
X8.3181Y-4.8488
X8.3189Y-4.8961
X8.3193Y-4.9457
X8.3436Y-4.7522
X8.3551Y-4.6358
X8.3618Y-4.7248
X8.3642Y-5.4409
X8.3661Y-4.8488
X8.3673Y-4.8965
X8.3681Y-4.9433
X8.3772Y-3.9146
X8.3988Y-3.9335
X8.4031Y-5.2724
X8.4138Y-1.1358
X8.4185Y-1.1106
X8.4193Y-5.1795
X8.4205Y-3.948
X8.4311Y-1.1594
X8.4315Y-4.6626
X8.4327Y-1.0913
X8.4409Y-3.9646
X8.461Y-3.9807
X8.4799Y-5.1772
X8.4827Y-3.9961
X8.4839Y-1.1815
X8.5028Y-4.0122
X8.5094Y-4.9587
X8.5173Y-4.8031
X8.522Y-4.0307
X8.5276Y-4.7642
X8.5402Y-1.0929
X8.5406Y-5.135
X8.5469Y-5.089
X8.5488Y-1.1508
X8.5492Y-4.6697
X8.5524Y-5.1142
X8.5567Y-4.7618
X8.5579Y-1.1126
X8.5689Y-5.05
X8.576Y-1.1295
X8.5791Y-1.2198
X8.5831Y-4.9461
X8.5839Y-4.7642
X8.5953Y-4.8929
X8.622Y-4.8358
X8.628Y-5.1134
X8.6362Y-4.6709
X8.6429Y-4.9181
X8.6685Y-4.4587
X8.6689Y-4.2469
X8.6701Y-4.6752
X8.6705Y-4.0291
X8.6736Y-4.8598
X8.6854Y-4.626
X8.7035Y-4.5449
X8.7043Y-4.7449
X8.7472Y-4.2024
X8.7736Y-3.9965
X8.7736Y-4.5362
X8.7787Y-4.422
X8.7831Y-4.3252
X8.7866Y-4.1106
X8.8201Y-3.9154
X8.8622Y-5.1736
X8.865Y-5.6016
X8.8799Y-3.137
X8.8882Y-4.4598
X8.8894Y-4.6862
X8.8917Y-4.0382
X8.8933Y-4.2531
X8.8996Y-1.2198
X8.9122Y-1.1665
X8.9551Y-5.1
X8.9567Y-5.602
X8.9579Y-5.1736
X8.9622Y-5.0185
X8.9752Y-3.0874
X8.9752Y-5.5484
X9.0012Y-5.6283
X9.0134Y-5.0783
X9.0602Y-3.048
X9.074Y-3.3677
X9.078Y-3.398
X9.0811Y-3.4331
X9.0819Y-5.3248
X9.0835Y-3.4709
X9.0846Y-3.5079
X9.0886Y-5.6622
X9.0894Y-1.515
X9.0902Y-5.7165
X9.1098Y-5.8055
X9.1291Y-4.9283
X9.1406Y-3.011
X9.1594Y-1.6543
X9.1681Y-1.7138
X9.1795Y-1.5535
X9.2043Y-2.2547
X9.2055Y-2.3035
X9.2063Y-2.4961
X9.2063Y-5.3949
X9.2087Y-2.3665
X9.2106Y-2.4386
X9.2453Y-3.5602
X9.2618Y-1.9575
X9.2642Y-5.2362
X9.2807Y-2.9157
X9.2972Y-5.698
X9.335Y-2.7319
X9.339Y-1.6898
X9.3406Y-1.7736
X9.3421Y-1.7268
X9.3461Y-1.815
X9.3728Y-3.3929
X9.3795Y-2.6874
X9.3894Y-2.5472
X9.3894Y-2.8425
X9.3941Y-2.2303
X9.3941Y-3.1681
X9.4272Y-1.9898
X9.4303Y-3.2732
X9.4339Y-3.3579
X9.4669Y-1.752
X9.4685Y-1.4854
X9.4701Y-3.674
X9.4909Y-2.1287
X9.4917Y-1.1618
X9.5039Y-1.6386
X9.5276Y-4.3091
X9.5327Y-4.6307
X9.5366Y-3.6201
X9.5378Y-3.7252
X9.5437Y-2.3713
X9.5528Y-2.9732
X9.5535Y-1.6173
X9.5701Y-2.6528
X9.5783Y-2.0472
X9.5837Y-3.2697
X9.5874Y-3.2472
X9.6039Y-1.8181
X9.6185Y-2.8618
X9.6193Y-2.5764
X9.6303Y-3.5051
X9.6315Y-1.55
X9.6354Y-3.2146
X9.6378Y-1.5764
X9.6406Y-2.0106
X9.6618Y-4.5677
X9.6768Y-3.3039
X9.6772Y-2.5744
X9.6815Y-2.6524
X9.6827Y-2.602
X9.6858Y-1.5126
X9.6858Y-2.6256
X9.687Y-2.8465
X9.6898Y-4.3496
X9.6909Y-3.2823
X9.6921Y-3.2591
X9.6939Y-2.0967
X9.6957Y-2.0732
X9.6965Y-3.7618
X9.7134Y-2.8323
X9.7142Y-2.0528
X9.7193Y-2.252
X9.7252Y-1.6067
X9.7256Y-3.4579
X9.7333Y-2.8081
X9.7341Y-1.3234
X9.7374Y-2.2205
X9.7461Y-3.4276
X9.7528Y-1.7776
X9.7547Y-2.1811
X9.7547Y-2.7957
X9.7567Y-1.6067
X9.7665Y-3.3961
X9.7742Y-1.7333
X9.7774Y-1.3667
X9.7787Y-1.676
X9.7791Y-1.5996
X9.8329Y-2.0659
X9.924Y-3.3646
X9.9748Y-2.3224
X10.2071Y-4.811
X10.2386Y-5.7492
T2
X1.0715Y-0.7004
X1.0715Y-0.7358
X1.0715Y-0.789
X1.0715Y-0.8244
X1.0715Y-0.8598
X1.0715Y-0.8953
X1.0715Y-0.9307
X1.101Y-0.7004
X1.101Y-0.7358
X1.101Y-0.7713
X1.101Y-0.8067
X1.101Y-0.8421
X1.101Y-0.8953
X1.101Y-0.9307
X4.5612Y-0.7067
X4.5612Y-0.7421
X4.5612Y-0.7953
X4.5612Y-0.8307
X4.5612Y-0.8661
X4.5612Y-0.9016
X4.5612Y-0.937
X4.5907Y-0.7067
X4.5907Y-0.7421
X4.5907Y-0.7776
X4.5907Y-0.813
X4.5907Y-0.8484
X4.5907Y-0.9016
X4.5907Y-0.937
T3
X0.8031Y-1.8425
X0.815Y-2.1299
X0.9724Y-0.7178
X0.9724Y-0.8465
X1.2047Y-0.6535
X1.2047Y-0.7822
T5
X5.9232Y-2.1138
X5.9232Y-2.3138
X6.0232Y-2.1138
X6.0232Y-2.3138
X6.1232Y-2.1138
X6.1232Y-2.3138
X6.2232Y-2.1138
X6.2232Y-2.3138
X6.3232Y-2.1138
X6.3232Y-2.3138
X6.4232Y-2.1138
X6.4232Y-2.3138
X6.5232Y-2.1138
X6.5232Y-2.3138
X6.6232Y-2.1138
X6.6232Y-2.3138
X6.7232Y-2.1138
X6.7232Y-2.3138
X6.8232Y-2.1138
X6.8232Y-2.3138
X6.9232Y-2.1138
X6.9232Y-2.3138
X7.0232Y-2.1138
X7.0232Y-2.3138
X7.1232Y-2.1138
X7.1232Y-2.3138
X7.2232Y-2.1138
X7.2232Y-2.3138
X7.3232Y-2.1138
X7.3232Y-2.3138
X9.106Y-1.0425
X9.176Y-0.9213
X9.1811Y-3.7957
X9.1811Y-3.8941
X9.1811Y-3.9728
X9.1811Y-4.0713
X9.246Y-1.0425
X9.316Y-0.9213
X9.386Y-1.0425
X9.456Y-0.9213
X9.526Y-1.0425
X9.596Y-0.9213
X9.666Y-1.0425
X9.736Y-0.9213
X9.806Y-1.0425
X9.876Y-0.9213
X9.946Y-1.0425
T6
X2.2102Y-0.8354
X2.3102Y-0.8354
X2.4102Y-0.8354
T7
X9.8057Y-3.8164
X9.8077Y-4.1708
X9.8081Y-4.5251
X9.8844Y-3.8164
X9.8864Y-4.1708
X9.8868Y-4.5251
X9.9632Y-3.8164
X9.9652Y-4.1708
X9.9656Y-4.5251
X10.0419Y-3.8164
X10.0439Y-4.1708
X10.0443Y-4.5251
T8
X3.9256Y-0.7567
X3.9748Y-0.9535
X4.024Y-0.7567
X4.0732Y-0.9535
X4.1224Y-0.7567
X4.1717Y-0.9535
X4.2209Y-0.7567
X4.2701Y-0.9535
X4.3193Y-0.7567
T9
X0.7453Y-4.5626
X0.7453Y-4.6626
X0.8453Y-4.5626
X0.8453Y-4.6626
X0.9949Y-3.0626
X1.0555Y-3.6252
X1.0555Y-3.7252
X1.0555Y-3.8252
X1.0555Y-3.9252
X1.0555Y-4.0252
X1.0949Y-3.0626
X1.1555Y-3.6252
X1.1555Y-3.7252
X1.1555Y-3.8252
X1.1555Y-3.9252
X1.1555Y-4.0252
X1.1949Y-3.0626
X1.4843Y-1.5654
X1.4843Y-1.6654
X1.4843Y-1.7654
X1.4843Y-1.8654
X1.4843Y-1.9654
X2.4583Y-2.6039
X2.4583Y-2.7039
X2.4583Y-2.8039
X2.5583Y-2.6039
X2.5583Y-2.7039
X2.5583Y-2.8039
X2.8748Y-1.5783
X2.9748Y-1.5783
X3.0748Y-1.5783
X3.1748Y-1.5783
X3.2748Y-1.5783
X3.3748Y-1.5783
X3.4748Y-1.5783
X3.5921Y-3.4224
X3.6921Y-3.4224
X3.7921Y-3.4224
X3.8921Y-3.4224
X3.9921Y-3.4224
X4.0921Y-3.4224
X4.1921Y-3.4224
X4.2992Y-1.7157
X4.3992Y-1.7157
X4.4992Y-1.7157
X4.5787Y-2.0063
X4.5992Y-1.7157
X4.6787Y-2.0063
X4.6992Y-1.7157
X4.7425Y-2.365
X4.7787Y-2.0063
X4.8425Y-2.365
X4.9425Y-2.365
X5.3913Y-0.8961
X5.3913Y-0.9961
X5.4472Y-1.3387
X5.4472Y-1.4387
X5.4913Y-0.8961
X5.4913Y-0.9961
X5.4992Y-3.7795
X5.5463Y-1.2428
X5.5472Y-1.3387
X5.5472Y-1.4387
X5.5913Y-0.8961
X5.5913Y-0.9961
X5.5992Y-3.7795
X5.6472Y-1.3387
X5.6472Y-1.4387
X5.6913Y-0.8961
X5.6913Y-0.9961
X5.6992Y-3.7795
X5.7472Y-1.3387
X5.7472Y-1.4387
X5.7913Y-0.8961
X5.7913Y-0.9961
X5.7992Y-3.7795
X5.8913Y-0.8961
X5.8913Y-0.9961
X5.8992Y-3.7795
X5.9913Y-0.8961
X5.9913Y-0.9961
X6.0913Y-0.8961
X6.0913Y-0.9961
X6.1913Y-0.8961
X6.1913Y-0.9961
X6.2913Y-0.8961
X6.2913Y-0.9961
X6.3913Y-0.8961
X6.3913Y-0.9961
X6.422Y-3.6909
X6.422Y-3.7909
X6.422Y-3.8909
X6.422Y-3.9909
X6.422Y-4.0909
X6.4913Y-0.8961
X6.4913Y-0.9961
X6.522Y-3.6909
X6.522Y-3.7909
X6.522Y-3.8909
X6.522Y-3.9909
X6.522Y-4.0909
X6.5913Y-0.8961
X6.5913Y-0.9961
X6.6913Y-0.8961
X6.6913Y-0.9961
X6.7913Y-0.8961
X6.7913Y-0.9961
X6.8913Y-0.8961
X6.8913Y-0.9961
X6.9913Y-0.8961
X6.9913Y-0.9961
X7.0913Y-0.8961
X7.0913Y-0.9961
X7.1913Y-0.8961
X7.1913Y-0.9961
X7.2913Y-0.8961
X7.2913Y-0.9961
X7.3913Y-0.8961
X7.3913Y-0.9961
X7.4913Y-0.8961
X7.4913Y-0.9961
X7.5913Y-0.8961
X7.5913Y-0.9961
X7.6913Y-0.8961
X7.6913Y-0.9961
X7.7913Y-0.8961
X7.7913Y-0.9961
X8.5264Y-4.1185
X8.5264Y-4.2185
X8.5264Y-4.3185
X8.5264Y-4.4185
X8.5264Y-4.5185
X9.8591Y-1.524
X9.8591Y-1.6331
X9.8591Y-1.7421
X9.8591Y-1.8512
X9.8591Y-1.9602
X9.8591Y-2.7909
X9.8591Y-2.9
X9.8591Y-3.0091
X9.8591Y-3.1181
X9.8591Y-3.2272
X9.9709Y-1.5785
X9.9709Y-1.6876
X9.9709Y-1.7967
X9.9709Y-1.9057
X9.9709Y-2.8455
X9.9709Y-2.9545
X9.9709Y-3.0636
X9.9709Y-3.1726
X10.1268Y-1.5242
X10.1268Y-1.6333
X10.1268Y-1.7423
X10.1268Y-1.8514
X10.1268Y-1.9604
X10.1268Y-2.7911
X10.1268Y-2.9002
X10.1268Y-3.0093
X10.1268Y-3.1183
X10.1268Y-3.2274
X10.2386Y-1.5787
X10.2386Y-1.6878
X10.2386Y-1.7969
X10.2386Y-1.9059
X10.2386Y-2.8457
X10.2386Y-2.9547
X10.2386Y-3.0638
X10.2386Y-3.1728
T10
X0.6768Y-0.6252
X0.6768Y-0.8252
X0.6768Y-0.9252
X0.6768Y-1.0252
X2.9762Y-0.6185
X3.0213Y-0.5405
X3.0213Y-0.6965
X3.0663Y-0.6185
X3.1114Y-0.5405
X3.1114Y-0.6965
X3.1565Y-0.6185
X3.2016Y-0.5405
X3.2016Y-0.6965
X3.2467Y-0.6185
X3.2917Y-0.5405
X3.2917Y-0.6965
X3.3368Y-0.6185
X3.3819Y-0.5405
X3.3819Y-0.6965
T11
X2.2102Y-0.7362
X2.4102Y-0.7362
T12
X3.1433Y-1.1431
X3.3402Y-1.2868
X3.537Y-1.1431
T14
X9.7951Y-3.7094
X9.7951Y-3.9235
X9.797Y-4.0637
X9.797Y-4.2779
X9.7974Y-4.418
X9.7974Y-4.6322
X10.0707Y-3.7094
X10.0707Y-3.9235
X10.0726Y-4.0637
X10.0726Y-4.2779
X10.073Y-4.418
X10.073Y-4.6322
T15
X1.339Y-1.9886
X1.3425Y-1.6945
X1.3425Y-1.8425
X1.6819Y-1.8654
X1.8803Y-1.5091
T16
X3.8846Y-0.6071
X3.8846Y-1.052
X4.3602Y-0.6071
X4.3602Y-1.052
T17
X4.1224Y-0.6071
T18
X9.915Y-2.2343
X9.915Y-3.5012
X9.9154Y-1.25
X9.9154Y-2.5169
X10.226Y-2.2343
X10.226Y-3.5012
X10.2264Y-1.25
X10.2264Y-2.5169
T19
X5.4421Y-2.1388
X7.8043Y-2.1638
T20
X2.7094Y-0.6185
X3.6937Y-0.6185
T21
X1.2205Y-1.4567
X1.2205Y-5.3937
X2.4016Y-1.4567
X2.4016Y-2.2441
X4.3701Y-1.4567
X4.3701Y-4.8031
X4.3701Y-5.3937
X4.9606Y-2.6378
X8.7008Y-1.4567
X8.7008Y-5.3937
T4
G00X1.0299Y-0.7142
M15
G01X1.0299Y-0.6827
M16
G05
G00X1.0299Y-0.9563
M15
G01X1.0299Y-0.9209
M16
G05
G00X1.1425Y-0.7142
M15
G01X1.1425Y-0.6827
M16
G05
G00X1.1425Y-0.9563
M15
G01X1.1425Y-0.9209
M16
G05
G00X4.5197Y-0.7205
M15
G01X4.5197Y-0.689
M16
G05
G00X4.5197Y-0.9626
M15
G01X4.5197Y-0.9272
M16
G05
G00X4.6323Y-0.7205
M15
G01X4.6323Y-0.689
M16
G05
G00X4.6323Y-0.9626
M15
G01X4.6323Y-0.9272
M16
G05
T5
G00X1.4098Y-0.5913
M15
G01X1.4098Y-0.5441
M16
G05
G00X1.4098Y-0.8394
M15
G01X1.4098Y-0.7685
M16
G05
G00X1.9807Y-0.5913
M15
G01X1.9807Y-0.5441
M16
G05
G00X1.9807Y-0.8394
M15
G01X1.9807Y-0.7685
M16
G05
T13
G00X9.185Y-3.6748
M15
G01X9.2244Y-3.6748
M16
G05
G00X9.2244Y-4.1921
M15
G01X9.185Y-4.1921
M16
G05
G00X9.3693Y-3.9138
M15
G01X9.3693Y-3.9531
M16
G05
M30
